<?xml version="1.0" standalone="no"?>
<!DOCTYPE svg PUBLIC "-//W3C//DTD SVG 20010904//EN"
 "http://www.w3.org/TR/2001/REC-SVG-20010904/DTD/svg10.dtd">
<svg version="1.0" xmlns="http://www.w3.org/2000/svg"
 width="512.000000pt" height="512.000000pt" viewBox="0 0 512.000000 512.000000"
 preserveAspectRatio="xMidYMid meet">
<metadata>
Created by potrace 1.11, written by Peter Selinger 2001-2013
</metadata>
<g transform="translate(0.000000,512.000000) scale(0.100000,-0.100000)"
fill="#000000" stroke="none">
<path d="M1172 5020 c-109 -29 -187 -74 -273 -160 -74 -73 -140 -181 -155
-250 -2 -14 -9 -47 -14 -74 -6 -29 -10 -403 -10 -932 l0 -884 200 0 200 0 2
893 c3 865 4 893 22 922 25 38 44 56 81 81 28 18 66 19 1320 22 1203 2 1293 1
1330 -15 52 -22 102 -75 115 -122 6 -23 10 -403 10 -1069 l0 -1032 -1458 0
c-801 0 -1539 0 -1640 0 l-182 0 0 -852 c1 -916 0 -909 52 -1031 52 -119 153
-226 276 -290 135 -70 58 -67 1537 -64 l1330 2 79 28 c180 64 317 203 378 384
22 67 23 78 26 585 l3 518 -200 0 -200 0 -3 -492 c-3 -468 -4 -495 -22 -523
-18 -28 -74 -84 -86 -86 -3 0 -16 -4 -30 -7 -14 -4 -606 -7 -1316 -7 l-1290 0
-41 27 c-22 15 -51 44 -64 65 l-24 38 -3 652 -3 653 1641 0 1640 0 -1 1263 c0
1067 -3 1270 -15 1316 -59 222 -219 384 -436 441 -70 18 -124 19 -1388 19
-1262 0 -1318 -1 -1388 -19z"/>
<path d="M2560 2920 l0 -200 560 0 560 0 0 200 0 200 -560 0 -560 0 0 -200z"/>
<path d="M2560 1480 l0 -200 560 0 560 0 0 200 0 200 -560 0 -560 0 0 -200z"/>
</g>
</svg>
